<svg width="173" height="30" viewBox="0 0 173 30" fill="none" xmlns="http://www.w3.org/2000/svg">
<path d="M49.7755 20.2427C49.7104 20.1125 49.6551 19.9627 49.6095 19.7935C49.5639 19.6242 49.5249 19.4451 49.4923 19.2563C49.3426 19.4191 49.17 19.5721 48.9747 19.7153C48.7794 19.8586 48.5613 19.9855 48.3204 20.0962C48.0861 20.2004 47.8256 20.2817 47.5392 20.3403C47.2527 20.4054 46.9435 20.438 46.6115 20.438C46.0711 20.438 45.573 20.3599 45.1173 20.2036C44.6681 20.0474 44.2807 19.8293 43.9552 19.5493C43.6297 19.2694 43.3758 18.9373 43.1935 18.5532C43.0112 18.1626 42.92 17.7394 42.92 17.2837C42.92 16.1704 43.3335 15.311 44.1603 14.7056C44.9936 14.0936 46.2338 13.7876 47.881 13.7876H49.3947V13.1626C49.3947 12.6548 49.2286 12.2544 48.8966 11.9614C48.5646 11.6619 48.0861 11.5122 47.4611 11.5122C46.9077 11.5122 46.504 11.6326 46.2501 11.8735C45.9962 12.1079 45.8693 12.4237 45.8693 12.8208H43.1544C43.1544 12.3716 43.2521 11.9451 43.4474 11.5415C43.6492 11.1379 43.9389 10.783 44.3165 10.4771C44.7006 10.1711 45.1661 9.93018 45.713 9.75439C46.2664 9.5721 46.8979 9.48096 47.6075 9.48096C48.2456 9.48096 48.838 9.55908 49.3849 9.71533C49.9383 9.87158 50.4168 10.1027 50.8204 10.4087C51.2241 10.7147 51.5398 11.1021 51.7677 11.5708C51.9956 12.033 52.1095 12.5701 52.1095 13.1821V17.7134C52.1095 18.2798 52.1453 18.7485 52.2169 19.1196C52.2885 19.4907 52.3927 19.8097 52.5294 20.0767V20.2427H49.7755ZM47.1876 18.3384C47.4611 18.3384 47.715 18.3058 47.9493 18.2407C48.1837 18.1756 48.3953 18.091 48.5841 17.9868C48.7729 17.8826 48.9357 17.7655 49.0724 17.6353C49.2091 17.4985 49.3165 17.3618 49.3947 17.2251V15.4087H48.0079C47.5848 15.4087 47.2234 15.451 46.924 15.5356C46.6245 15.6138 46.3803 15.7277 46.1915 15.8774C46.0027 16.0207 45.8628 16.1965 45.7716 16.4048C45.6805 16.6066 45.6349 16.828 45.6349 17.0688C45.6349 17.4334 45.7618 17.7362 46.0157 17.9771C46.2762 18.2179 46.6668 18.3384 47.1876 18.3384Z" fill="#D5D5D5"/>
<path d="M62.7736 9.48096C63.1837 9.48096 63.5613 9.51025 63.9064 9.56885C64.2579 9.62093 64.5411 9.67952 64.756 9.74463L64.3556 12.4497C63.9975 12.3651 63.6297 12.3032 63.2521 12.2642C62.881 12.2186 62.5262 12.1958 62.1876 12.1958C61.4259 12.1958 60.8139 12.3423 60.3517 12.6353C59.896 12.9282 59.5542 13.3481 59.3263 13.895V20.2427H56.6115V9.67627H59.1407L59.2677 11.4048C59.6974 10.8058 60.2117 10.3371 60.8107 9.99854C61.4096 9.65348 62.0639 9.48096 62.7736 9.48096Z" fill="#D5D5D5"/>
<path d="M73.9552 16.9321L74.8732 9.67627H77.3634L75.4689 20.2427H73.0861L71.6993 13.5239L70.3615 20.2427H67.9786L66.0841 9.67627H68.5646L69.4825 16.9614L70.8107 9.67627H72.6271L73.9552 16.9321Z" fill="#D5D5D5"/>
<path d="M84.3361 20.438C83.5223 20.438 82.7833 20.3045 82.1193 20.0376C81.4552 19.7707 80.8855 19.4093 80.4103 18.9536C79.935 18.4914 79.5672 17.951 79.3068 17.3325C79.0529 16.7075 78.9259 16.0402 78.9259 15.3306V14.9399C78.9259 14.1326 79.0529 13.397 79.3068 12.7329C79.5607 12.0623 79.9155 11.4862 80.3712 11.0044C80.8269 10.5226 81.3673 10.1483 81.9923 9.88135C82.6173 9.61442 83.2976 9.48096 84.0333 9.48096C84.795 9.48096 85.4721 9.60791 86.0646 9.86182C86.6635 10.1092 87.1681 10.4608 87.5782 10.9165C87.9949 11.3722 88.3107 11.9224 88.5255 12.5669C88.7404 13.2049 88.8478 13.9113 88.8478 14.686V15.8384H81.6798C81.7319 16.1965 81.8361 16.5252 81.9923 16.8247C82.1551 17.1177 82.3601 17.3716 82.6075 17.5864C82.8549 17.8013 83.1381 17.9673 83.4572 18.0845C83.7762 18.2017 84.1245 18.2603 84.5021 18.2603C84.769 18.2603 85.0327 18.2342 85.2931 18.1821C85.56 18.13 85.8139 18.0552 86.0548 17.9575C86.2957 17.8534 86.5203 17.7264 86.7286 17.5767C86.937 17.4269 87.1193 17.2511 87.2755 17.0493L88.6329 18.5142C88.4637 18.755 88.2423 18.9927 87.9689 19.2271C87.7019 19.4549 87.3829 19.66 87.0118 19.8423C86.6473 20.0181 86.2404 20.1613 85.7911 20.272C85.3419 20.3826 84.8569 20.438 84.3361 20.438ZM84.0138 11.6782C83.7078 11.6782 83.4279 11.7336 83.174 11.8442C82.92 11.9484 82.6954 12.1014 82.5001 12.3032C82.3113 12.505 82.1518 12.7459 82.0216 13.0259C81.8914 13.3058 81.7937 13.6183 81.7286 13.9634H86.1818V13.7485C86.1687 13.4621 86.1134 13.1919 86.0157 12.938C85.9181 12.6841 85.7781 12.466 85.5958 12.2837C85.4135 12.0949 85.1889 11.9484 84.922 11.8442C84.6616 11.7336 84.3588 11.6782 84.0138 11.6782Z" fill="#D5D5D5"/>
<path d="M97.8224 20.2427C97.7573 20.1125 97.7019 19.9627 97.6564 19.7935C97.6108 19.6242 97.5717 19.4451 97.5392 19.2563C97.3894 19.4191 97.2169 19.5721 97.0216 19.7153C96.8263 19.8586 96.6082 19.9855 96.3673 20.0962C96.1329 20.2004 95.8725 20.2817 95.5861 20.3403C95.2996 20.4054 94.9904 20.438 94.6583 20.438C94.118 20.438 93.6199 20.3599 93.1642 20.2036C92.715 20.0474 92.3276 19.8293 92.0021 19.5493C91.6766 19.2694 91.4226 18.9373 91.2404 18.5532C91.0581 18.1626 90.9669 17.7394 90.9669 17.2837C90.9669 16.1704 91.3803 15.311 92.2072 14.7056C93.0405 14.0936 94.2807 13.7876 95.9279 13.7876H97.4415V13.1626C97.4415 12.6548 97.2755 12.2544 96.9435 11.9614C96.6115 11.6619 96.1329 11.5122 95.5079 11.5122C94.9545 11.5122 94.5509 11.6326 94.297 11.8735C94.0431 12.1079 93.9161 12.4237 93.9161 12.8208H91.2013C91.2013 12.3716 91.299 11.9451 91.4943 11.5415C91.6961 11.1379 91.9858 10.783 92.3634 10.4771C92.7475 10.1711 93.213 9.93018 93.7599 9.75439C94.3133 9.5721 94.9448 9.48096 95.6544 9.48096C96.2924 9.48096 96.8849 9.55908 97.4318 9.71533C97.9851 9.87158 98.4637 10.1027 98.8673 10.4087C99.271 10.7147 99.5867 11.1021 99.8146 11.5708C100.042 12.033 100.156 12.5701 100.156 13.1821V17.7134C100.156 18.2798 100.192 18.7485 100.264 19.1196C100.335 19.4907 100.44 19.8097 100.576 20.0767V20.2427H97.8224ZM95.2345 18.3384C95.5079 18.3384 95.7618 18.3058 95.9962 18.2407C96.2306 18.1756 96.4422 18.091 96.631 17.9868C96.8198 17.8826 96.9825 17.7655 97.1193 17.6353C97.256 17.4985 97.3634 17.3618 97.4415 17.2251V15.4087H96.0548C95.6316 15.4087 95.2703 15.451 94.9708 15.5356C94.6713 15.6138 94.4272 15.7277 94.2384 15.8774C94.0496 16.0207 93.9096 16.1965 93.8185 16.4048C93.7273 16.6066 93.6818 16.828 93.6818 17.0688C93.6818 17.4334 93.8087 17.7362 94.0626 17.9771C94.323 18.2179 94.7137 18.3384 95.2345 18.3384Z" fill="#D5D5D5"/>
<path d="M107.725 17.1079L107.861 17.8696L107.998 17.1372L110.322 9.67627H113.154L109.141 20.2427H106.592L102.559 9.67627H105.391L107.725 17.1079Z" fill="#D5D5D5"/>
<path d="M120.371 20.438C119.557 20.438 118.818 20.3045 118.154 20.0376C117.49 19.7707 116.921 19.4093 116.445 18.9536C115.97 18.4914 115.602 17.951 115.342 17.3325C115.088 16.7075 114.961 16.0402 114.961 15.3306V14.9399C114.961 14.1326 115.088 13.397 115.342 12.7329C115.596 12.0623 115.951 11.4862 116.406 11.0044C116.862 10.5226 117.402 10.1483 118.027 9.88135C118.652 9.61442 119.333 9.48096 120.068 9.48096C120.83 9.48096 121.507 9.60791 122.1 9.86182C122.699 10.1092 123.203 10.4608 123.613 10.9165C124.03 11.3722 124.346 11.9224 124.561 12.5669C124.776 13.2049 124.883 13.9113 124.883 14.686V15.8384H117.715C117.767 16.1965 117.871 16.5252 118.027 16.8247C118.19 17.1177 118.395 17.3716 118.643 17.5864C118.89 17.8013 119.173 17.9673 119.492 18.0845C119.811 18.2017 120.16 18.2603 120.537 18.2603C120.804 18.2603 121.068 18.2342 121.328 18.1821C121.595 18.13 121.849 18.0552 122.09 17.9575C122.331 17.8534 122.555 17.7264 122.764 17.5767C122.972 17.4269 123.154 17.2511 123.311 17.0493L124.668 18.5142C124.499 18.755 124.277 18.9927 124.004 19.2271C123.737 19.4549 123.418 19.66 123.047 19.8423C122.682 20.0181 122.276 20.1613 121.826 20.272C121.377 20.3826 120.892 20.438 120.371 20.438ZM120.049 11.6782C119.743 11.6782 119.463 11.7336 119.209 11.8442C118.955 11.9484 118.731 12.1014 118.535 12.3032C118.346 12.505 118.187 12.7459 118.057 13.0259C117.927 13.3058 117.829 13.6183 117.764 13.9634H122.217V13.7485C122.204 13.4621 122.149 13.1919 122.051 12.938C121.953 12.6841 121.813 12.466 121.631 12.2837C121.449 12.0949 121.224 11.9484 120.957 11.8442C120.697 11.7336 120.394 11.6782 120.049 11.6782Z" fill="#D5D5D5"/>
<path d="M130 18.6704C130 18.4165 130.042 18.1821 130.127 17.9673C130.212 17.7459 130.335 17.5571 130.498 17.4009C130.661 17.2381 130.859 17.1112 131.094 17.02C131.328 16.9224 131.592 16.8735 131.885 16.8735C132.178 16.8735 132.442 16.9224 132.676 17.02C132.91 17.1112 133.106 17.2381 133.262 17.4009C133.425 17.5571 133.548 17.7459 133.633 17.9673C133.724 18.1821 133.77 18.4165 133.77 18.6704C133.77 18.9178 133.724 19.1489 133.633 19.3638C133.548 19.5786 133.425 19.7674 133.262 19.9302C133.106 20.0864 132.91 20.2101 132.676 20.3013C132.442 20.3924 132.178 20.438 131.885 20.438C131.592 20.438 131.328 20.3924 131.094 20.3013C130.859 20.2101 130.661 20.0864 130.498 19.9302C130.335 19.7674 130.212 19.5786 130.127 19.3638C130.042 19.1489 130 18.9178 130 18.6704Z" fill="#D5D5D5"/>
<path d="M138.897 14.8618C138.897 14.0936 139.007 13.384 139.229 12.7329C139.45 12.0754 139.772 11.5057 140.195 11.0239C140.625 10.5422 141.146 10.1646 141.758 9.89111C142.376 9.61768 143.083 9.48096 143.877 9.48096C144.671 9.48096 145.378 9.61768 145.996 9.89111C146.615 10.1646 147.136 10.5422 147.559 11.0239C147.988 11.5057 148.314 12.0754 148.535 12.7329C148.757 13.384 148.867 14.0936 148.867 14.8618V15.0669C148.867 15.8416 148.757 16.5578 148.535 17.2153C148.314 17.8664 147.992 18.4328 147.568 18.9146C147.145 19.3963 146.624 19.7739 146.006 20.0474C145.387 20.3143 144.684 20.4478 143.897 20.4478C143.102 20.4478 142.393 20.3143 141.768 20.0474C141.149 19.7739 140.625 19.3963 140.195 18.9146C139.772 18.4328 139.45 17.8664 139.229 17.2153C139.007 16.5578 138.897 15.8416 138.897 15.0669V14.8618ZM141.611 15.0669C141.611 15.5096 141.654 15.9263 141.738 16.3169C141.823 16.701 141.957 17.0396 142.139 17.3325C142.321 17.619 142.555 17.8468 142.842 18.0161C143.135 18.1854 143.486 18.27 143.897 18.27C144.294 18.27 144.636 18.1854 144.922 18.0161C145.208 17.8468 145.44 17.619 145.615 17.3325C145.798 17.0396 145.931 16.701 146.016 16.3169C146.1 15.9263 146.143 15.5096 146.143 15.0669V14.8618C146.143 14.4321 146.1 14.0252 146.016 13.6411C145.931 13.257 145.798 12.9185 145.615 12.6255C145.44 12.3325 145.208 12.1014 144.922 11.9321C144.636 11.7629 144.287 11.6782 143.877 11.6782C143.473 11.6782 143.128 11.7629 142.842 11.9321C142.555 12.1014 142.321 12.3325 142.139 12.6255C141.957 12.9185 141.823 13.257 141.738 13.6411C141.654 14.0252 141.611 14.4321 141.611 14.8618V15.0669Z" fill="#D5D5D5"/>
<path d="M158.867 9.48096C159.277 9.48096 159.655 9.51025 160 9.56885C160.352 9.62093 160.635 9.67952 160.85 9.74463L160.449 12.4497C160.091 12.3651 159.723 12.3032 159.346 12.2642C158.975 12.2186 158.62 12.1958 158.281 12.1958C157.52 12.1958 156.908 12.3423 156.445 12.6353C155.99 12.9282 155.648 13.3481 155.42 13.895V20.2427H152.705V9.67627H155.234L155.361 11.4048C155.791 10.8058 156.305 10.3371 156.904 9.99854C157.503 9.65348 158.158 9.48096 158.867 9.48096Z" fill="#D5D5D5"/>
<path d="M163.018 14.8813C163.018 14.0806 163.115 13.3481 163.311 12.6841C163.512 12.02 163.799 11.4504 164.17 10.9751C164.541 10.4998 164.99 10.132 165.518 9.87158C166.045 9.61117 166.641 9.48096 167.305 9.48096C167.923 9.48096 168.454 9.58512 168.897 9.79346C169.339 10.0018 169.717 10.298 170.029 10.6821L170.137 9.67627H172.608V19.9009C172.608 20.617 172.484 21.255 172.236 21.8149C171.996 22.3748 171.654 22.8468 171.211 23.231C170.775 23.6151 170.248 23.9048 169.629 24.1001C169.017 24.3019 168.34 24.4028 167.598 24.4028C167.279 24.4028 166.937 24.3703 166.572 24.3052C166.208 24.2401 165.846 24.1392 165.488 24.0024C165.13 23.8657 164.792 23.6899 164.473 23.4751C164.154 23.2668 163.88 23.0161 163.652 22.7231L164.873 21.0728C165.218 21.4634 165.609 21.7596 166.045 21.9614C166.481 22.1698 166.953 22.2739 167.461 22.2739C168.223 22.2739 168.815 22.0688 169.238 21.6587C169.668 21.255 169.883 20.6789 169.883 19.9302V19.3247C169.564 19.6763 169.19 19.9497 168.76 20.145C168.337 20.3403 167.845 20.438 167.285 20.438C166.628 20.438 166.035 20.3045 165.508 20.0376C164.987 19.7642 164.541 19.3898 164.17 18.9146C163.799 18.4393 163.512 17.8761 163.311 17.2251C163.115 16.5675 163.018 15.8547 163.018 15.0864V14.8813ZM165.742 15.0864C165.742 15.5291 165.785 15.9425 165.869 16.3267C165.96 16.7043 166.097 17.0363 166.279 17.3228C166.462 17.6027 166.693 17.8241 166.973 17.9868C167.253 18.1496 167.585 18.231 167.969 18.231C168.444 18.231 168.835 18.1398 169.141 17.9575C169.453 17.7752 169.701 17.5213 169.883 17.1958V12.7231C169.701 12.3911 169.453 12.1372 169.141 11.9614C168.835 11.7791 168.451 11.688 167.988 11.688C167.604 11.688 167.272 11.7726 166.992 11.9419C166.712 12.1047 166.478 12.3325 166.289 12.6255C166.107 12.9119 165.97 13.2505 165.879 13.6411C165.788 14.0252 165.742 14.4386 165.742 14.8813V15.0864Z" fill="#D5D5D5"/>
<circle cx="15.5403" cy="15.3708" r="13.2995" stroke="#D5D5D5" stroke-width="2.5"/>
<path d="M17.3842 20.2427C17.3191 20.1125 17.2637 19.9627 17.2181 19.7935C17.1726 19.6242 17.1335 19.4451 17.101 19.2563C16.9512 19.4191 16.7787 19.5721 16.5834 19.7153C16.3881 19.8586 16.17 19.9855 15.9291 20.0962C15.6947 20.2004 15.4343 20.2817 15.1478 20.3403C14.8614 20.4054 14.5521 20.438 14.2201 20.438C13.6797 20.438 13.1817 20.3599 12.726 20.2036C12.2767 20.0474 11.8894 19.8293 11.5638 19.5493C11.2383 19.2694 10.9844 18.9373 10.8021 18.5532C10.6198 18.1626 10.5287 17.7394 10.5287 17.2837C10.5287 16.1704 10.9421 15.311 11.7689 14.7056C12.6023 14.0936 13.8425 13.7876 15.4896 13.7876H17.0033V13.1626C17.0033 12.6548 16.8373 12.2544 16.5052 11.9614C16.1732 11.6619 15.6947 11.5122 15.0697 11.5122C14.5163 11.5122 14.1127 11.6326 13.8588 11.8735C13.6049 12.1079 13.4779 12.4237 13.4779 12.8208H10.7631C10.7631 12.3716 10.8607 11.9451 11.056 11.5415C11.2579 11.1379 11.5476 10.783 11.9252 10.4771C12.3093 10.1711 12.7748 9.93018 13.3217 9.75439C13.875 9.5721 14.5066 9.48096 15.2162 9.48096C15.8542 9.48096 16.4467 9.55908 16.9935 9.71533C17.5469 9.87158 18.0254 10.1027 18.4291 10.4087C18.8327 10.7147 19.1485 11.1021 19.3763 11.5708C19.6042 12.033 19.7181 12.5701 19.7181 13.1821V17.7134C19.7181 18.2798 19.7539 18.7485 19.8256 19.1196C19.8972 19.4907 20.0013 19.8097 20.1381 20.0767V20.2427H17.3842ZM14.7963 18.3384C15.0697 18.3384 15.3236 18.3058 15.558 18.2407C15.7924 18.1756 16.0039 18.091 16.1927 17.9868C16.3816 17.8826 16.5443 17.7655 16.681 17.6353C16.8177 17.4985 16.9252 17.3618 17.0033 17.2251V15.4087H15.6166C15.1934 15.4087 14.8321 15.451 14.5326 15.5356C14.2331 15.6138 13.989 15.7277 13.8002 15.8774C13.6114 16.0207 13.4714 16.1965 13.3802 16.4048C13.2891 16.6066 13.2435 16.828 13.2435 17.0688C13.2435 17.4334 13.3705 17.7362 13.6244 17.9771C13.8848 18.2179 14.2754 18.3384 14.7963 18.3384Z" fill="#D5D5D5"/>
</svg>
